<svg width="30" height="15" viewBox="0 0 30 15" fill="none" xmlns="http://www.w3.org/2000/svg">
<g clip-path="url(#clip0_2001_250)">
<path fill-rule="evenodd" clip-rule="evenodd" d="M19.1415 5.40358L28.5554 4.80451C29.189 4.80451 29.6416 5.40358 29.2795 5.83148L22.6717 14.3896C22.4907 14.4752 22.3096 14.6463 22.0381 14.6463H7.19304C7.08048 14.6335 6.9727 14.5958 6.87837 14.5363C6.78404 14.4769 6.70579 14.3973 6.64992 14.304L0.0420765 5.83148C-0.319997 5.40358 0.0420765 4.71893 0.675706 4.80451L10.0896 5.40358L14.0724 1.29568C14.344 0.953359 14.9776 0.953359 15.1587 1.29568L19.1415 5.318V5.40358ZM21.1329 13.277L14.9776 11.1375V13.277H21.1329ZM14.2535 13.277V11.1375L8.09822 13.277H14.344H14.2535ZM13.5293 10.7096L7.28355 12.8491L2.75763 6.85846L13.6198 10.624L13.5293 10.7096ZM15.7018 10.7096L22.0381 12.8491L26.564 6.85846L15.7018 10.624V10.7096ZM14.2535 10.1961V3.09289L9.18444 8.39892L14.2535 10.1105V10.1961ZM14.9776 10.1961V3.09289L20.1372 8.39892L14.9776 10.1105V10.1961ZM7.64563 7.88543L8.82237 6.68729L3.02919 6.34497L7.64563 7.88543ZM21.5855 7.88543L20.4087 6.68729L26.1114 6.34497L21.5855 7.88543Z" fill="#006CFF"/>
</g>
<defs>
<clipPath id="clip0_2001_250">
<rect width="28.9659" height="13.693" fill="white" transform="translate(0.204803 0.90625)"/>
</clipPath>
</defs>
</svg>
