<svg width="21" height="22" viewBox="0 0 21 22" fill="none" xmlns="http://www.w3.org/2000/svg">
<g clip-path="url(#clip0_2001_254)">
<path d="M17.5376 3.52075L14.9481 6.04916C14.8668 6.12853 14.7604 6.17892 14.6463 6.19225C14.532 6.20559 14.4166 6.18109 14.3183 6.1227C13.2997 5.52268 12.125 5.22344 10.936 5.2611C9.74693 5.29877 8.59457 5.67172 7.61791 6.33493C7.01725 6.74318 6.49569 7.25244 6.07758 7.83895C5.39917 8.79316 5.01758 9.91844 4.97871 11.0794C4.93984 12.2404 5.24536 13.3877 5.85851 14.3831C5.91789 14.4789 5.94273 14.5913 5.92909 14.7025C5.91544 14.8136 5.86408 14.9171 5.78321 14.9964L3.19375 17.5248C3.14161 17.5761 3.07874 17.6157 3.00944 17.641C2.94015 17.6664 2.86607 17.6767 2.79228 17.6716C2.71848 17.6663 2.64672 17.6456 2.58191 17.6107C2.51709 17.5759 2.46075 17.5278 2.41674 17.4697C1.01568 15.5893 0.291618 13.3089 0.357565 10.9844C0.423512 8.65989 1.27576 6.42212 2.78128 4.62034C3.2409 4.06907 3.75702 3.56511 4.32161 3.11633C6.16674 1.64669 8.4582 0.81477 10.8384 0.750378C13.2187 0.685987 15.5537 1.39274 17.4794 2.76037C17.5393 2.8032 17.589 2.8582 17.6249 2.92157C17.661 2.98495 17.6824 3.05518 17.688 3.12746C17.6936 3.19973 17.683 3.27232 17.657 3.34022C17.631 3.40811 17.5903 3.4697 17.5376 3.52075Z" fill="url(#paint0_linear_2001_254)"/>
<path d="M17.5354 19.0291L14.9459 16.5006C14.8646 16.4213 14.7582 16.3709 14.644 16.3576C14.5299 16.3442 14.4144 16.3687 14.3161 16.4271C13.3557 16.9928 12.2553 17.2918 11.1337 17.2918C10.012 17.2918 8.91159 16.9928 7.95115 16.4271C7.85291 16.3687 7.73743 16.3442 7.62322 16.3576C7.50902 16.3709 7.40271 16.4213 7.32133 16.5006L4.73188 19.0291C4.67757 19.08 4.63542 19.1421 4.60841 19.2107C4.5814 19.2793 4.5702 19.353 4.57559 19.4264C4.58098 19.4997 4.60283 19.571 4.63961 19.6352C4.67637 19.6994 4.72716 19.7549 4.78836 19.7977C6.63159 21.1073 8.85244 21.8126 11.132 21.8126C13.4114 21.8126 15.6323 21.1073 17.4755 19.7977C17.5369 19.7552 17.588 19.6999 17.6251 19.6358C17.6622 19.5717 17.6844 19.5005 17.6901 19.4272C17.6958 19.3538 17.6849 19.28 17.6582 19.2113C17.6314 19.1425 17.5895 19.0803 17.5354 19.0291Z" fill="white"/>
<path d="M11.1384 14.2833C12.8397 14.2833 14.219 12.9366 14.219 11.2752C14.219 9.61399 12.8397 8.26721 11.1384 8.26721C9.43694 8.26721 8.0577 9.61399 8.0577 11.2752C8.0577 12.9366 9.43694 14.2833 11.1384 14.2833Z" fill="white"/>
</g>
<defs>
<linearGradient id="paint0_linear_2001_254" x1="15.1039" y1="-0.797466" x2="-6.21366" y2="21.0364" gradientUnits="userSpaceOnUse">
<stop stop-color="#17CCFC"/>
<stop offset="0.5" stop-color="#5D31FF"/>
<stop offset="1" stop-color="#F35AFF"/>
</linearGradient>
<clipPath id="clip0_2001_254">
<rect width="20.0128" height="21.0661" fill="white" transform="translate(0.353428 0.746338)"/>
</clipPath>
</defs>
</svg>
