<svg width="0" height="0" class="hidden">
    <symbol xmlns="http://www.w3.org/2000/svg" fill="none" viewBox="0 0 16 16" id="docker">
        <path fill="#2396ED" d="M12.342 4.536l.15-.227.262.159.116.083c.28.216.869.768.996 1.684.223-.04.448-.06.673-.06.534 0 .893.124 1.097.227l.105.057.068.045.191.156-.066.2a2.044 2.044 0 01-.47.73c-.29.299-.8.652-1.609.698l-.178.005h-.148c-.37.977-.867 2.078-1.702 3.066a7.081 7.081 0 01-1.74 1.488 7.941 7.941 0 01-2.549.968c-.644.125-1.298.187-1.953.185-1.45 0-2.73-.288-3.517-.792-.703-.449-1.243-1.182-1.606-2.177a8.25 8.25 0 01-.461-2.83.516.516 0 01.432-.516l.068-.005h10.54l.092-.007.149-.016c.256-.034.646-.11.92-.27-.328-.543-.421-1.178-.268-1.854a3.3 3.3 0 01.3-.81l.108-.187zM2.89 5.784l.04.007a.127.127 0 01.077.082l.006.04v1.315l-.006.041a.127.127 0 01-.078.082l-.039.006H1.478a.124.124 0 01-.117-.088l-.007-.04V5.912l.007-.04a.127.127 0 01.078-.083l.039-.006H2.89zm1.947 0l.039.007a.127.127 0 01.078.082l.006.04v1.315l-.007.041a.127.127 0 01-.078.082l-.039.006H3.424a.125.125 0 01-.117-.088L3.3 7.23V5.913a.13.13 0 01.085-.123l.039-.007h1.413zm1.976 0l.039.007a.127.127 0 01.077.082l.007.04v1.315l-.007.041a.127.127 0 01-.078.082l-.039.006H5.4a.124.124 0 01-.117-.088l-.006-.04V5.912l.006-.04a.127.127 0 01.078-.083l.039-.006h1.413zm1.952 0l.039.007a.127.127 0 01.078.082l.007.04v1.315a.13.13 0 01-.085.123l-.04.006H7.353a.124.124 0 01-.117-.088l-.006-.04V5.912l.006-.04a.127.127 0 01.078-.083l.04-.006h1.412zm1.97 0l.039.007a.127.127 0 01.078.082l.006.04v1.315a.13.13 0 01-.085.123l-.039.006H9.322a.124.124 0 01-.117-.088l-.006-.04V5.912l.006-.04a.127.127 0 01.078-.083l.04-.006h1.411zM4.835 3.892l.04.007a.127.127 0 01.077.081l.007.041v1.315a.13.13 0 01-.085.123l-.039.007H3.424a.125.125 0 01-.117-.09l-.007-.04V4.021a.13.13 0 01.085-.122l.039-.007h1.412zm1.976 0l.04.007a.127.127 0 01.077.081l.007.041v1.315a.13.13 0 01-.085.123l-.039.007H5.4a.125.125 0 01-.117-.09l-.006-.04V4.021l.006-.04a.127.127 0 01.078-.082l.039-.007h1.412zm1.953 0c.054 0 .1.037.117.088l.007.041v1.315a.13.13 0 01-.085.123l-.04.007H7.353a.125.125 0 01-.117-.09l-.006-.04V4.021l.006-.04a.127.127 0 01.078-.082l.04-.007h1.412zm0-1.892c.054 0 .1.037.117.088l.007.04v1.316a.13.13 0 01-.085.123l-.04.006H7.353a.124.124 0 01-.117-.088l-.006-.04V2.128l.006-.04a.127.127 0 01.078-.082L7.353 2h1.412z"></path>
    </symbol>
    <symbol xmlns="http://www.w3.org/2000/svg" version="1.1" preserveAspectRatio="xMidYMid" viewBox="0 0 512 118" id="htmx">
        <title>htmx</title>
        <g>
            <g transform="translate(223.3447, 1.263)">
                <path d="M17.8254996,0 L17.5598845,31.7515907 L17.8254996,31.6337284 C48.1700418,24.0841275 54.670026,44.6913488 54.670026,54.6584661 L54.670026,94.3433005 L36.460168,94.3433005 L36.460168,55.8061374 C36.460168,49.9174046 33.5739581,41.5187969 17.8254996,46.3858871 L17.8257947,94.3433005 L0,94.3433005 L0,3.69864902 L17.8254996,0 Z M213.632717,56.9107711 L213.632717,94.3125593 L196.707296,94.3125593 L196.707296,56.9107711 L196.697909,56.4419487 C196.441123,49.9797562 190.90802,41.3965425 179.096702,46.9352148 L179.096702,94.3125593 L160.541261,94.3125593 L160.538367,56.5251064 C160.455137,51.0662144 158.484668,43.1969301 142.917274,44.5424567 L142.917274,94.3125593 L125.566489,94.3125593 L125.566489,34.5188504 L126.065623,34.2115136 C130.261196,31.6281282 152.39848,24.7975461 170.161803,35.5544661 C199.99949,20.696214 213.632717,36.7046538 213.632717,56.9107711 Z M88.1139423,10.9997558 L88.1139423,30.539338 L110.980118,30.5402598 L110.980118,45.2009426 L88.967508,45.2006247 L88.9677941,69.3578453 C88.9677941,72.6876794 89.0862565,75.1171204 89.9464097,76.5489262 C95.2895838,81.15652 102.30082,81.7481278 110.980118,78.3237497 L112.449157,92.795822 C94.6124334,97.8853152 82.3932891,96.0929452 75.7917244,87.4187121 C72.2551151,83.4522387 70.499374,78.0007112 70.499374,71.1101435 L70.499374,14.8228876 L88.1139423,10.9997558 Z" fill="white"></path>
                <polygon fill="#4065C5" points="223.509011 30.5954284 242.839974 30.5954284 255.90407 50.7743785 267.94821 30.5954284 286.997537 30.5954284 265.495849 61.3723433 288.655314 94.3125593 268.634212 94.3125593 255.253274 72.162321 241.872336 94.3125593 222.469112 94.3125593 245.805871 61.3723433"></polygon>
            </g>
            <g>
                <polygon fill="white" points="127.034576 29.9381957 179.282027 51.9665646 179.282027 67.2739923 127.034576 88.9956807 122.890712 73.9408967 161.526789 59.4411929 122.890712 44.8857548"></polygon>
                <polygon fill="white" points="52.2474505 29.9376299 4.62634637e-14 51.9665646 1.2860272e-13 67.2739923 52.2474505 88.9956807 56.3913143 73.9408967 17.7552379 59.4411929 56.3913143 44.8857548"></polygon>
                <polygon fill="#4065C5" points="101.084149 -1.11671878e-15 119.057207 -1.11671878e-15 79.1293384 117.030912 60.2248197 117.030912"></polygon>
            </g>
        </g>
    </symbol>
    <symbol fill="none" xmlns="http://www.w3.org/2000/svg" viewBox="0 0 27 24" id="react">
        <path d="M13.485 14.3833C14.8155 14.3833 15.8941 13.3043 15.8941 11.9732C15.8941 10.6422 14.8155 9.56311 13.485 9.56311C12.1546 9.56311 11.076 10.6422 11.076 11.9732C11.076 13.3043 12.1546 14.3833 13.485 14.3833Z" fill="#00D8FF"></path>
        <path d="M13.4849 17.4944C10.1017 17.4944 7.14555 17.0959 4.93326 16.3374C3.49839 15.8477 2.27947 15.1947 1.41087 14.4506C0.489487 13.6632 0 12.8038 0 11.9733C0 10.3793 1.7468 8.81901 4.67892 7.80119C7.07836 6.96582 10.2072 6.50012 13.4801 6.50012C16.6953 6.50012 19.781 6.95142 22.1661 7.77719C23.5625 8.25729 24.7383 8.88142 25.5733 9.57277C26.4803 10.3313 26.9602 11.1619 26.9602 11.9733C26.9602 13.6296 25.007 15.3052 21.8589 16.347C19.6323 17.0863 16.6569 17.4944 13.4849 17.4944ZM13.4849 7.65236C10.38 7.65236 7.30871 8.10366 5.06283 8.88622C2.36585 9.82722 1.15653 11.1139 1.15653 11.9733C1.15653 12.8663 2.45703 14.273 5.30757 15.2476C7.39989 15.9629 10.2312 16.3422 13.4849 16.3422C16.537 16.3422 19.3827 15.9581 21.499 15.2524C24.4599 14.2682 25.8132 12.8615 25.8132 11.9733C25.8132 11.5172 25.4677 10.9795 24.8391 10.4562C24.1144 9.85123 23.0587 9.29911 21.7966 8.86222C19.5267 8.08445 16.5754 7.65236 13.4849 7.65236Z" fill="#00D8FF"></path>
        <path d="M8.01911 23.9852C7.52962 23.9852 7.09772 23.8796 6.733 23.6684C5.35572 22.8714 4.87583 20.5765 5.4565 17.5279C5.93159 15.0266 7.09292 12.0883 8.72934 9.25095C10.337 6.46636 12.2661 4.01785 14.1713 2.3615C15.2846 1.3917 16.4124 0.681146 17.4297 0.306667C18.5383 -0.101419 19.4981 -0.101419 20.1987 0.301866C21.6336 1.12764 22.1087 3.66257 21.4368 6.90806C20.9617 9.21254 19.8292 11.9923 18.2455 14.7433C16.5563 17.6719 14.7328 20.034 12.9716 21.5751C11.8294 22.5738 10.6537 23.3035 9.57875 23.6828C9.01728 23.8844 8.4894 23.9852 8.01911 23.9852ZM9.22363 9.53901L9.72271 9.82707C8.17267 12.5156 7.02574 15.401 6.58424 17.7439C6.05156 20.5525 6.56504 22.2425 7.30407 22.6698C7.48643 22.7754 7.72637 22.833 8.01911 22.833C8.97409 22.833 10.4761 22.2281 12.2133 20.711C13.8786 19.2563 15.6206 16.9902 17.2474 14.172C18.7734 11.5266 19.858 8.86687 20.3091 6.68241C20.9377 3.62416 20.3955 1.75177 19.6228 1.30528C19.2293 1.07963 18.5911 1.10844 17.8232 1.3917C16.9354 1.71816 15.9325 2.3567 14.9247 3.23528C13.1155 4.81001 11.268 7.15291 9.72271 9.83187L9.22363 9.53901Z" fill="#00D8FF"></path>
        <path d="M18.9511 24C17.6458 24 15.9902 23.2126 14.2626 21.7243C12.3334 20.0632 10.3707 17.5906 8.72946 14.7532C7.11704 11.9687 5.9653 9.07365 5.48061 6.59153C5.19748 5.14162 5.14469 3.81174 5.32705 2.74112C5.5286 1.57447 6.00369 0.743899 6.70913 0.335813C8.1392 -0.494761 10.5722 0.359818 13.0485 2.56348C14.8049 4.12381 16.6476 6.49551 18.2361 9.24169C19.9301 12.1703 21.0674 14.9309 21.5185 17.2258C21.8112 18.7141 21.8592 20.0968 21.6529 21.2202C21.4321 22.4157 20.933 23.2654 20.2132 23.6831C19.8533 23.8944 19.4262 24 18.9511 24ZM9.72763 14.1771C11.2825 16.8657 13.2116 19.2998 15.016 20.8505C17.1803 22.7133 18.8983 23.1166 19.6421 22.6845C20.4148 22.238 20.981 20.4088 20.3956 17.4514C19.9637 15.2814 18.8743 12.6408 17.2427 9.82261C15.7118 7.17725 13.9507 4.90637 12.2854 3.42766C9.95318 1.35363 8.06242 0.887929 7.28979 1.33442C6.89629 1.56007 6.60355 2.13139 6.46439 2.93796C6.30602 3.86936 6.35401 5.06001 6.61315 6.37068C7.07385 8.72798 8.17759 11.4982 9.72763 14.1771Z" fill="#00D8FF"></path>
    </symbol>
    <symbol fill="none" xmlns="http://www.w3.org/2000/svg" viewBox="0 0 32 32" id="python">
        <path fill-rule="evenodd" clip-rule="evenodd" d="M13.0164 2C10.8193 2 9.03825 3.72453 9.03825 5.85185V8.51852H15.9235V9.25926H5.97814C3.78107 9.25926 2 10.9838 2 13.1111L2 18.8889C2 21.0162 3.78107 22.7407 5.97814 22.7407H8.27322V19.4815C8.27322 17.3542 10.0543 15.6296 12.2514 15.6296H19.5956C21.4547 15.6296 22.9617 14.1704 22.9617 12.3704V5.85185C22.9617 3.72453 21.1807 2 18.9836 2H13.0164ZM12.0984 6.74074C12.8589 6.74074 13.4754 6.14378 13.4754 5.40741C13.4754 4.67103 12.8589 4.07407 12.0984 4.07407C11.3378 4.07407 10.7213 4.67103 10.7213 5.40741C10.7213 6.14378 11.3378 6.74074 12.0984 6.74074Z" fill="url(#paint0_linear_87_8204)"></path>
        <path fill-rule="evenodd" clip-rule="evenodd" d="M18.9834 30C21.1805 30 22.9616 28.2755 22.9616 26.1482V23.4815L16.0763 23.4815L16.0763 22.7408L26.0217 22.7408C28.2188 22.7408 29.9998 21.0162 29.9998 18.8889V13.1111C29.9998 10.9838 28.2188 9.25928 26.0217 9.25928L23.7266 9.25928V12.5185C23.7266 14.6459 21.9455 16.3704 19.7485 16.3704L12.4042 16.3704C10.5451 16.3704 9.03809 17.8296 9.03809 19.6296L9.03809 26.1482C9.03809 28.2755 10.8192 30 13.0162 30H18.9834ZM19.9015 25.2593C19.1409 25.2593 18.5244 25.8562 18.5244 26.5926C18.5244 27.329 19.1409 27.9259 19.9015 27.9259C20.662 27.9259 21.2785 27.329 21.2785 26.5926C21.2785 25.8562 20.662 25.2593 19.9015 25.2593Z" fill="url(#paint1_linear_87_8204)"></path>
        <defs>
            <linearGradient id="paint0_linear_87_8204" x1="12.4809" y1="2" x2="12.4809" y2="22.7407" gradientUnits="userSpaceOnUse">
                <stop stop-color="#327EBD"></stop>
                <stop offset="1" stop-color="#1565A7"></stop>
            </linearGradient>
            <linearGradient id="paint1_linear_87_8204" x1="19.519" y1="9.25928" x2="19.519" y2="30" gradientUnits="userSpaceOnUse">
                <stop stop-color="#FFDA4B"></stop>
                <stop offset="1" stop-color="#F9C600"></stop>
            </linearGradient>
        </defs>
    </symbol>
    <symbol fill="none" xmlns="http://www.w3.org/2000/svg" viewBox="0 0 24 24" id="ts">
        <g clip-path="url(#clip0_2001_117)">
            <path d="M20.4001 0.00012207H3.60012C1.6119 0.00012207 0.00012207 1.6119 0.00012207 3.60012V20.4001C0.00012207 22.3883 1.6119 24.0001 3.60012 24.0001H20.4001C22.3883 24.0001 24.0001 22.3883 24.0001 20.4001V3.60012C24.0001 1.6119 22.3883 0.00012207 20.4001 0.00012207Z" fill="#3178C6"></path>
            <path d="M10.9221 13.3127H13.9221V11.3909H5.53149V13.3127H8.53149V21.8909H10.9221V13.3127ZM14.8596 21.4221C15.2393 21.619 15.7034 21.7643 16.219 21.8627C16.7346 21.9612 17.2971 22.0081 17.8596 22.0081C18.4221 22.0081 18.9377 21.9565 19.4534 21.8487C19.969 21.7409 20.3909 21.5627 20.7659 21.3331C21.1456 21.0846 21.469 20.7706 21.6565 20.3487C21.844 19.9268 21.9893 19.4581 21.9893 18.8487C21.9893 18.4221 21.9237 18.0518 21.7971 17.7237C21.6706 17.3956 21.4877 17.1143 21.2346 16.8799C20.9956 16.6315 20.719 16.4112 20.3909 16.2237C20.0627 16.0362 19.6877 15.8393 19.2659 15.6612C18.9565 15.5346 18.7034 15.4127 18.4221 15.2909C18.1784 15.169 17.9674 15.0471 17.8127 14.9252C17.6393 14.7987 17.5081 14.6674 17.4143 14.5315C17.3206 14.3909 17.2737 14.2362 17.2737 14.0627C17.2737 13.9034 17.3154 13.7581 17.4002 13.6268C17.4851 13.4956 17.6018 13.3877 17.7518 13.294C17.9018 13.2002 18.0893 13.1299 18.3143 13.0784C18.5346 13.0268 18.7784 13.0034 19.0643 13.0034C19.2612 13.0034 19.4674 13.0179 19.6737 13.0474C19.8893 13.077 20.1096 13.1224 20.3299 13.1834C20.5502 13.2443 20.7659 13.3193 20.9862 13.4131C21.1924 13.5068 21.3846 13.6146 21.5487 13.7365V11.5334C21.1924 11.3974 20.7987 11.2943 20.3768 11.2287C19.9549 11.1631 19.4862 11.1302 18.9237 11.1302C18.3612 11.1302 17.8456 11.1912 17.3299 11.3084C16.8143 11.4256 16.3924 11.6131 16.0174 11.8709C15.6377 12.124 15.3612 12.4334 15.1268 12.8552C14.9065 13.249 14.7987 13.699 14.7987 14.2615C14.7987 14.9646 15.0002 15.574 15.4081 16.0427C15.8112 16.5584 16.4393 16.9334 17.2362 17.3084C17.5596 17.4396 17.8456 17.5709 18.1268 17.6974C18.4081 17.824 18.6424 17.9552 18.8299 18.0912C19.0315 18.2271 19.1909 18.3771 19.2987 18.5365C19.4159 18.6959 19.4768 18.8834 19.4768 19.099C19.4768 19.249 19.4402 19.3896 19.369 19.5209C19.2977 19.6521 19.1862 19.7646 19.0362 19.8584C18.8862 19.9521 18.7034 20.0271 18.4737 20.0834C18.2534 20.1349 18.0049 20.1631 17.6768 20.1631C17.1612 20.1631 16.6456 20.074 16.1768 19.8959C15.6612 19.7177 15.1924 19.4506 14.8596 19.1721V21.4221Z" fill="white"></path>
        </g>
        <defs>
            <clipPath id="clip0_2001_117">
                <rect width="24" height="24" fill="white"></rect>
            </clipPath>
        </defs>
    </symbol>
</svg>