<svg width="0" height="0" class="hidden">
    <symbol xmlns="http://www.w3.org/2000/svg" viewBox="0 0 128 128" id="typescript">
        <path fill="#fff" d="M22.67 47h99.67v73.67H22.67z"></path>
        <path fill="#007acc"
              d="M1.5 63.91v62.5h125v-125H1.5zm100.73-5a15.56 15.56 0 017.82 4.5 20.58 20.58 0 013 4c0 .16-5.4 3.81-8.69 5.85-.12.08-.6-.44-1.13-1.23a7.09 7.09 0 00-5.87-3.53c-3.79-.26-6.23 1.73-6.21 5a4.58 4.58 0 00.54 2.34c.83 1.73 2.38 2.76 7.24 4.86 8.95 3.85 12.78 6.39 15.16 10 2.66 4 3.25 10.46 1.45 15.24-2 5.2-6.9 8.73-13.83 9.9a38.32 38.32 0 01-9.52-.1 23 23 0 01-12.72-6.63c-1.15-1.27-3.39-4.58-3.25-4.82a9.34 9.34 0 011.15-.73L82 101l3.59-2.08.75 1.11a16.78 16.78 0 004.74 4.54c4 2.1 9.46 1.81 12.16-.62a5.43 5.43 0 00.69-6.92c-1-1.39-3-2.56-8.59-5-6.45-2.78-9.23-4.5-11.77-7.24a16.48 16.48 0 01-3.43-6.25 25 25 0 01-.22-8c1.33-6.23 6-10.58 12.82-11.87a31.66 31.66 0 019.49.26zm-29.34 5.24v5.12H56.66v46.23H45.15V69.26H28.88v-5a49.19 49.19 0 01.12-5.17C29.08 59 39 59 51 59h21.83z"></path>
    </symbol>
    <symbol version="1.1" xmlns="http://www.w3.org/2000/svg"
            preserveAspectRatio="xMidYMid" viewBox="0 0 256 228" id="react">
        <g>
            <path d="M210.483381,73.8236374 C207.827698,72.9095503 205.075867,72.0446761 202.24247,71.2267368 C202.708172,69.3261098 203.135596,67.4500894 203.515631,65.6059664 C209.753843,35.3248922 205.675082,10.9302478 191.747328,2.89849283 C178.392359,-4.80289661 156.551327,3.22703567 134.492936,22.4237776 C132.371761,24.2697233 130.244662,26.2241201 128.118477,28.2723861 C126.701777,26.917204 125.287358,25.6075897 123.876584,24.3549348 C100.758745,3.82852863 77.5866802,-4.82157937 63.6725966,3.23341515 C50.3303869,10.9571328 46.3792156,33.8904224 51.9945178,62.5880206 C52.5367729,65.3599011 53.1706189,68.1905639 53.8873982,71.068617 C50.6078941,71.9995641 47.4418534,72.9920277 44.4125156,74.0478303 C17.3093297,83.497195 0,98.3066828 0,113.667995 C0,129.533287 18.5815786,145.446423 46.8116526,155.095373 C49.0394553,155.856809 51.3511025,156.576778 53.7333796,157.260293 C52.9600965,160.37302 52.2875179,163.423318 51.7229345,166.398431 C46.3687351,194.597975 50.5500231,216.989464 63.8566899,224.664425 C77.6012619,232.590464 100.66852,224.443422 123.130185,204.809231 C124.905501,203.257196 126.687196,201.611293 128.472081,199.886102 C130.785552,202.113904 133.095375,204.222319 135.392897,206.199955 C157.14963,224.922338 178.637969,232.482469 191.932332,224.786092 C205.663234,216.837268 210.125675,192.78347 204.332202,163.5181 C203.88974,161.283006 203.374826,158.99961 202.796573,156.675661 C204.416503,156.196743 206.006814,155.702335 207.557482,155.188332 C236.905331,145.46465 256,129.745175 256,113.667995 C256,98.2510906 238.132466,83.3418093 210.483381,73.8236374 L210.483381,73.8236374 Z M204.118035,144.807565 C202.718197,145.270987 201.281904,145.718918 199.818271,146.153177 C196.578411,135.896354 192.205739,124.989735 186.854729,113.72131 C191.961041,102.721277 196.164656,91.9540963 199.313837,81.7638014 C201.93261,82.5215915 204.474374,83.3208483 206.923636,84.1643056 C230.613348,92.3195488 245.063763,104.377206 245.063763,113.667995 C245.063763,123.564379 229.457753,136.411268 204.118035,144.807565 L204.118035,144.807565 Z M193.603754,165.642007 C196.165567,178.582766 196.531475,190.282717 194.834536,199.429057 C193.309843,207.64764 190.243595,213.12715 186.452366,215.321689 C178.384612,219.991462 161.131788,213.921395 142.525146,197.909832 C140.392124,196.074366 138.243609,194.114502 136.088259,192.040261 C143.301619,184.151133 150.510878,174.979732 157.54698,164.793993 C169.922699,163.695814 181.614905,161.900447 192.218042,159.449363 C192.740247,161.555956 193.204126,163.621993 193.603754,165.642007 L193.603754,165.642007 Z M87.2761866,214.514686 C79.3938934,217.298414 73.1160375,217.378157 69.3211631,215.189998 C61.2461189,210.532528 57.8891498,192.554265 62.4682434,168.438039 C62.9927272,165.676183 63.6170041,162.839142 64.3365173,159.939216 C74.8234575,162.258154 86.4299951,163.926841 98.8353334,164.932519 C105.918826,174.899534 113.336329,184.06091 120.811247,192.08264 C119.178102,193.65928 117.551336,195.16028 115.933685,196.574699 C106.001303,205.256705 96.0479605,211.41654 87.2761866,214.514686 L87.2761866,214.514686 Z M50.3486141,144.746959 C37.8658105,140.48046 27.5570398,134.935332 20.4908634,128.884403 C14.1414664,123.446815 10.9357817,118.048415 10.9357817,113.667995 C10.9357817,104.34622 24.8334611,92.4562517 48.0123604,84.3748281 C50.8247961,83.3942121 53.7689223,82.4701001 56.8242337,81.6020363 C60.0276398,92.0224477 64.229889,102.917218 69.3011135,113.93411 C64.1642716,125.11459 59.9023288,136.182975 56.6674809,146.725506 C54.489347,146.099407 52.3791089,145.440499 50.3486141,144.746959 L50.3486141,144.746959 Z M62.7270678,60.4878073 C57.9160346,35.9004118 61.1112387,17.3525532 69.1516515,12.6982729 C77.7160924,7.74005624 96.6544653,14.8094222 116.614922,32.5329619 C117.890816,33.6657739 119.171723,34.8514442 120.456275,36.0781256 C113.018267,44.0647686 105.66866,53.1573386 98.6480514,63.0655695 C86.6081646,64.1815215 75.0831931,65.9741531 64.4868907,68.3746571 C63.8206914,65.6948233 63.2305903,63.0619242 62.7270678,60.4878073 L62.7270678,60.4878073 Z M173.153901,87.7550367 C170.620796,83.3796304 168.020249,79.1076627 165.369124,74.9523483 C173.537126,75.9849113 181.362914,77.3555864 188.712066,79.0329319 C186.505679,86.1041206 183.755673,93.4974728 180.518546,101.076741 C178.196419,96.6680702 175.740322,92.2229454 173.153901,87.7550367 L173.153901,87.7550367 Z M128.122121,43.8938899 C133.166461,49.3588189 138.218091,55.4603279 143.186789,62.0803968 C138.179814,61.8439007 133.110868,61.720868 128.000001,61.720868 C122.937434,61.720868 117.905854,61.8411667 112.929865,62.0735617 C117.903575,55.515009 122.99895,49.4217021 128.122121,43.8938899 L128.122121,43.8938899 Z M82.8018984,87.830679 C80.2715265,92.2183886 77.8609975,96.6393627 75.5753239,101.068539 C72.3906004,93.5156998 69.6661103,86.0886276 67.440586,78.9171899 C74.7446255,77.2826781 82.5335049,75.9461789 90.6495601,74.9332099 C87.9610684,79.1268011 85.3391054,83.4302106 82.8018984,87.8297677 L82.8018984,87.830679 L82.8018984,87.830679 Z M90.8833221,153.182899 C82.4979621,152.247395 74.5919739,150.979704 67.289757,149.390303 C69.5508242,142.09082 72.3354636,134.505173 75.5876271,126.789657 C77.8792246,131.215644 80.2993228,135.638441 82.8451877,140.03572 L82.8456433,140.03572 C85.4388987,144.515476 88.1255676,148.90364 90.8833221,153.182899 L90.8833221,153.182899 Z M128.424691,184.213105 C123.24137,178.620587 118.071264,172.434323 113.021912,165.780078 C117.923624,165.972373 122.921029,166.0708 128.000001,166.0708 C133.217953,166.0708 138.376211,165.953235 143.45336,165.727219 C138.468257,172.501308 133.434855,178.697141 128.424691,184.213105 L128.424691,184.213105 Z M180.622896,126.396409 C184.044571,134.195313 186.929004,141.741317 189.219234,148.9164 C181.796719,150.609693 173.782736,151.973534 165.339049,152.986959 C167.996555,148.775595 170.619884,144.430263 173.197646,139.960532 C175.805484,135.438399 178.28163,130.90943 180.622896,126.396409 L180.622896,126.396409 Z M163.724586,134.496971 C159.722835,141.435557 155.614455,148.059271 151.443648,154.311611 C143.847063,154.854776 135.998946,155.134562 128.000001,155.134562 C120.033408,155.134562 112.284171,154.887129 104.822013,154.402745 C100.48306,148.068386 96.285368,141.425078 92.3091341,134.556664 L92.3100455,134.556664 C88.3442923,127.706935 84.6943232,120.799333 81.3870228,113.930466 C84.6934118,107.045648 88.3338117,100.130301 92.276781,93.292874 L92.2758697,93.294241 C96.2293193,86.4385872 100.390102,79.8276317 104.688954,73.5329157 C112.302398,72.9573964 120.109505,72.6571055 127.999545,72.6571055 L128.000001,72.6571055 C135.925583,72.6571055 143.742714,72.9596746 151.353879,73.5402067 C155.587114,79.7888993 159.719645,86.3784378 163.688588,93.2350031 C167.702644,100.168578 171.389978,107.037901 174.724618,113.77508 C171.400003,120.627999 167.720871,127.566587 163.724586,134.496971 L163.724586,134.496971 Z M186.284677,12.3729198 C194.857321,17.3165548 198.191049,37.2542268 192.804953,63.3986692 C192.461372,65.0669011 192.074504,66.7661189 191.654369,68.4881206 C181.03346,66.0374921 169.500286,64.2138746 157.425315,63.0810626 C150.391035,53.0639249 143.101577,43.9572289 135.784778,36.073113 C137.751934,34.1806885 139.716356,32.3762092 141.672575,30.673346 C160.572216,14.2257007 178.236518,7.73185406 186.284677,12.3729198 L186.284677,12.3729198 Z M128.000001,90.8080696 C140.624975,90.8080696 150.859926,101.042565 150.859926,113.667995 C150.859926,126.292969 140.624975,136.527922 128.000001,136.527922 C115.375026,136.527922 105.140075,126.292969 105.140075,113.667995 C105.140075,101.042565 115.375026,90.8080696 128.000001,90.8080696 L128.000001,90.8080696 Z"
                  fill="#00D8FF"></path>
        </g>
    </symbol>
    <symbol version="1.1" xmlns="http://www.w3.org/2000/svg" preserveAspectRatio="xMidYMid" viewBox="0 0 256 168"
            id="htmx">
        <title>htmx</title>
        <g>
            <polygon fill="white"
                     points="181.394935 42.749283 256 74.2039835 256 96.0617321 181.394935 127.078518 175.477838 105.581524 230.646979 84.8771384 175.477838 64.0931689"></polygon>
            <polygon fill="white"
                     points="74.6050654 42.7484751 6.6060424e-14 74.2039835 1.83634114e-13 96.0617321 74.6050654 127.078518 80.5221623 105.581524 25.3530206 84.8771384 80.5221623 64.0931689"></polygon>
            <polygon fill="#4065C5"
                     points="144.339858 -1.59458264e-15 170.003907 -1.59458264e-15 112.990192 167.110525 85.996093 167.110525"></polygon>
        </g>
    </symbol>
    <symbol version="1.1" xmlns="http://www.w3.org/2000/svg"
            preserveAspectRatio="xMidYMid" viewBox="0 0 512 131" id="docker">
        <g>
            <path d="M140.597857,25.715353 L144.490155,28.5334738 C151.259367,33.993583 155.151665,40.1582224 155.997817,47.2035244 C163.274721,45.7944644 172.582389,46.8512597 176.643917,49.6693803 L176.643917,49.6693803 L180.366984,51.9591037 L179.690064,53.3681638 C178.505451,56.010152 178.16699,56.7146826 177.99776,57.0669478 C171.397777,70.276889 158.367041,70.4530219 152.27475,70.276889 C136.87479,108.849919 104.044105,130.161957 59.7057585,130.161957 C39.2288883,130.161957 23.6596978,123.645053 13.1674172,110.787377 C-0.709469964,93.8786517 -0.709469964,71.8620819 0.47514237,64.8167801 L0.47514237,64.8167801 L0.813603044,63.4077196 L123.167133,63.4077196 C129.597885,63.4077196 134.505565,61.6463943 136.87479,60.2373337 C134.336335,56.3624173 133.490183,51.9591037 133.320953,49.4932479 C132.813262,42.4479456 134.505565,35.0503783 137.890171,29.7664017 L137.890171,29.7664017 L140.597857,25.715353 Z M246.612381,33.8938009 C247.977599,33.8938009 249.133362,34.3514521 250.079706,35.2667683 C251.02605,36.1820845 251.499214,37.3378478 251.499214,38.7340928 L251.499214,82.2967197 C251.499214,89.557194 248.954984,95.7005798 243.866446,100.727062 C238.715854,105.815599 232.572468,108.35983 225.436104,108.35983 C218.237685,108.35983 212.0943,105.815599 207.005762,100.727062 C201.917225,95.6385242 199.372994,89.4951384 199.372994,82.2967197 C199.372994,75.0983009 201.917225,68.9549151 207.005762,63.8663777 C212.0943,58.7778402 218.237685,56.2336096 225.436104,56.2336096 C231.61061,56.2336096 237.055884,58.1417825 241.772089,61.9581856 L241.772089,38.7340928 C241.772089,37.3378478 242.229741,36.1820845 243.145057,35.2667683 C244.060373,34.3514521 245.216136,33.8938009 246.612381,33.8938009 Z M283.102597,56.2336096 C290.238961,56.2336096 296.382346,58.7778402 301.532939,63.8663777 C304.077208,66.4106464 305.977624,69.2186078 307.234244,72.2903471 C308.490865,75.3620859 309.134679,78.6975103 309.165707,82.2967197 C309.165707,89.557194 306.621476,95.7005798 301.532939,100.727062 C296.382346,105.815599 290.238961,108.35983 283.102597,108.35983 C275.904178,108.35983 269.760792,105.815599 264.672255,100.727062 C259.583717,95.6385242 257.039487,89.4951384 257.039487,82.2967197 C257.039487,75.0983009 259.583717,68.9549151 264.672255,63.8663777 C269.760792,58.7778402 275.904178,56.2336096 283.102597,56.2336096 Z M340.676007,56.2336096 C347.222845,56.2336096 352.885309,58.3434592 357.66357,62.5632223 C358.780566,63.5561073 359.339056,64.7816816 359.339056,66.2399822 C359.339056,67.6362272 358.881405,68.7997474 357.966088,69.7305774 C357.050772,70.6614074 355.895009,71.1268153 354.498764,71.1268153 C353.319712,71.1268153 352.264787,70.754489 351.333957,70.0098252 C349.751547,68.6756352 348.091591,67.6672512 346.354042,66.9846425 C344.616493,66.3020337 342.723833,65.9607344 340.676007,65.9607344 C338.410988,65.9607344 336.285624,66.3873586 334.299853,67.2406195 C332.314083,68.0938804 330.576559,69.2574006 329.087231,70.7312147 C327.597903,72.2050288 326.426627,73.9347953 325.573366,75.9205659 C324.720105,77.9063366 324.293481,80.0316997 324.293481,82.2967197 C324.293481,84.5617396 324.720105,86.6871028 325.573366,88.6728734 C326.426627,90.6586441 327.597903,92.3884106 329.087231,93.8622247 C330.576559,95.3360387 332.314083,96.4995589 334.299853,97.3528199 C336.285624,98.2060808 338.410988,98.632705 340.676007,98.632705 C342.723833,98.632705 344.616493,98.2991624 346.354042,97.6320677 C348.091591,96.9649724 349.736033,95.9643452 351.287416,94.6301557 C352.156191,93.9785745 353.180089,93.6372757 354.35914,93.6062476 C355.755385,93.6062476 356.911148,94.0638989 357.826464,94.9792153 C358.74178,95.8945313 359.199432,97.0502948 359.199432,98.4465398 C359.199432,99.8117572 358.687483,101.006304 357.66357,102.030218 C352.854281,106.24998 347.191817,108.35983 340.676007,108.35983 C333.477588,108.35983 327.334203,105.815599 322.245665,100.727062 C317.157128,95.6385242 314.612897,89.4951384 314.612897,82.2967197 C314.612897,75.0983009 317.157128,68.9549151 322.245665,63.8663777 C327.334203,58.7778402 333.477588,56.2336096 340.676007,56.2336096 Z M369.71962,33.8938009 C371.05381,33.8938009 372.194059,34.3669658 373.140403,35.3133096 C374.086747,36.2596534 374.559912,37.4154167 374.559912,38.780634 L374.559912,75.082823 L402.39159,56.9782699 C403.167282,56.4818273 404.036044,56.2336096 404.997901,56.2336096 C405.68051,56.2336096 406.316568,56.3577182 406.906093,56.60594 C407.495619,56.8541612 408.007568,57.2032168 408.441955,57.6531183 C408.876342,58.1030193 409.225399,58.6227251 409.489134,59.2122507 C409.752869,59.8017764 409.884735,60.4223205 409.884735,61.0739017 C409.884735,62.8114506 409.26419,64.0990799 408.023084,64.9368268 L388.522292,77.5960517 L408.535038,100.122026 C409.43484,101.114911 409.884735,102.247404 409.884735,103.519538 C409.884735,104.171119 409.752869,104.791663 409.489134,105.381189 C409.225399,105.970714 408.876342,106.49042 408.441955,106.940321 C408.007568,107.390222 407.495619,107.739278 406.906093,107.9875 C406.316568,108.235721 405.68051,108.35983 404.997901,108.35983 C403.694739,108.35983 402.608787,107.940962 401.740012,107.103215 L380.237947,82.9482974 L374.559912,86.6715988 L374.559912,103.472997 C374.559912,104.807187 374.086747,105.955193 373.140403,106.91705 C372.194059,107.878908 371.05381,108.35983 369.71962,108.35983 C368.354403,108.35983 367.19864,107.878908 366.252296,106.91705 C365.305952,105.955193 364.832787,104.807187 364.832787,103.472997 L364.832787,38.780634 C364.832787,37.4154167 365.305952,36.2596534 366.252296,35.3133096 C367.19864,34.3669658 368.354403,33.8938009 369.71962,33.8938009 Z M441.208869,56.2336096 C448.345233,56.2336096 454.488619,58.7778402 459.639211,63.8663777 C462.18348,66.3796184 464.091653,69.1798235 465.363787,72.2670763 C466.635922,75.3543291 467.271979,78.6975103 467.271979,82.2967197 C467.271979,83.6929647 466.798815,84.8487281 465.852471,85.7640441 C464.906127,86.6793601 463.750364,87.1370118 462.385146,87.1370118 L425.524462,87.1370118 C426.051932,88.8435331 426.827613,90.40265 427.851526,91.814409 C428.875438,93.226168 430.077743,94.4362288 431.458474,95.4446278 C432.839205,96.4530269 434.359538,97.236464 436.019518,97.7949621 C437.679498,98.3534602 439.409265,98.632705 441.208869,98.632705 C443.256696,98.632705 445.133841,98.3224326 446.840363,97.7018795 C448.546885,97.0813258 450.129272,96.1505099 451.587572,94.9094035 C452.518402,94.1337117 453.588841,93.7303578 454.79892,93.6993302 C456.195165,93.6993302 457.350928,94.1569815 458.266244,95.0722979 C459.18156,95.9876139 459.639211,97.1433774 459.639211,98.5396224 C459.639211,99.9048393 459.173803,101.06836 458.242973,102.030218 C453.433685,106.24998 447.755707,108.35983 441.208869,108.35983 C434.010451,108.35983 427.867065,105.815599 422.778527,100.727062 C417.68999,95.6385242 415.145759,89.4951384 415.145759,82.2967197 C415.145759,75.0983009 417.68999,68.9549151 422.778527,63.8663777 C427.867065,58.7778402 434.010451,56.2336096 441.208869,56.2336096 Z M498.689199,56.2336096 C500.054412,56.2336096 501.520451,56.3266912 503.087349,56.5128574 C504.654242,56.6990231 506.097008,57.0325657 507.415687,57.5134947 C508.734361,57.9944232 509.828068,58.6537511 510.696843,59.4914985 C511.565618,60.3292454 512,61.4151975 512,62.749387 C512,63.4319957 511.868132,64.0680534 511.604401,64.657579 C511.340666,65.2471046 510.991606,65.7668104 510.557219,66.2167114 C510.122831,66.6666129 509.610886,67.015669 509.021359,67.2638903 C508.431831,67.5121115 507.795774,67.6362201 507.113167,67.6362201 C506.52364,67.6362201 505.841043,67.4655705 505.065352,67.1242661 C503.110606,66.3485748 500.985243,65.9607344 498.689199,65.9607344 C496.424177,65.9607344 494.298815,66.3873586 492.313046,67.2406195 C490.327273,68.0938804 488.597506,69.2574006 487.123692,70.7312147 C485.649878,72.2050288 484.486358,73.9347953 483.633097,75.9205659 C482.779836,77.9063366 482.353212,80.0316997 482.353212,82.2967197 L482.353212,103.519538 C482.353212,104.853728 481.880047,105.993977 480.933703,106.940321 C479.987359,107.886665 478.84711,108.35983 477.51292,108.35983 C476.147703,108.35983 474.99194,107.886665 474.045596,106.940321 C473.099252,105.993977 472.626087,104.853728 472.626087,103.519538 L472.626087,61.0739017 C472.626087,59.7397118 473.099252,58.5994623 474.045596,57.6531183 C474.99194,56.7067743 476.147703,56.2336096 477.51292,56.2336096 C478.84711,56.2336096 479.987359,56.7067743 480.933703,57.6531183 C481.880047,58.5994623 482.353212,59.7397118 482.353212,61.0739017 L482.353212,62.0047267 C484.680287,60.1430667 487.209004,58.7158157 489.939439,57.7229301 C492.669876,56.7300446 495.586431,56.2336096 498.689199,56.2336096 Z M225.436104,65.9607344 C223.140057,65.9607344 220.99918,66.3951153 219.013409,67.2638903 C217.027639,68.1326647 215.305629,69.3039416 213.847328,70.7777557 C212.389028,72.2515698 211.233265,73.9813363 210.380004,75.9671075 C209.526743,77.9528781 209.100119,80.0627278 209.100119,82.2967197 C209.100119,84.5307116 209.526743,86.6405612 210.380004,88.6263324 C211.233265,90.612103 212.389028,92.3418695 213.847328,93.8156836 C215.305629,95.2894977 217.027639,96.4607747 219.013409,97.3295491 C220.99918,98.198324 223.140057,98.632705 225.436104,98.632705 C227.701124,98.632705 229.826487,98.198324 231.812258,97.3295491 C233.798029,96.4607747 235.527795,95.2817409 237.001609,93.7924128 C238.475423,92.3030847 239.638943,90.5733182 240.492204,88.6030616 C241.345465,86.6328045 241.772089,84.5307116 241.772089,82.2967197 C241.772089,80.0627278 241.345465,77.9606349 240.492204,75.9903777 C239.638943,74.0201211 238.475423,72.2903546 237.001609,70.8010265 C235.527795,69.3116984 233.798029,68.1326647 231.812258,67.2638903 C229.826487,66.3951153 227.701124,65.9607344 225.436104,65.9607344 Z M283.102597,65.9607344 C280.806549,65.9607344 278.665673,66.3951153 276.679902,67.2638903 C274.694131,68.1326647 272.972122,69.3039416 271.513821,70.7777557 C270.055521,72.2515698 268.899758,73.9813363 268.046497,75.9671075 C267.193236,77.9528781 266.766612,80.0627278 266.766612,82.2967197 C266.766612,84.5307116 267.193236,86.6405612 268.046497,88.6263324 C268.899758,90.612103 270.055521,92.3418695 271.513821,93.8156836 C272.972122,95.2894977 274.694131,96.4607747 276.679902,97.3295491 C278.665673,98.198324 280.806549,98.632705 283.102597,98.632705 C285.367617,98.632705 287.49298,98.198324 289.478751,97.3295491 C291.464521,96.4607747 293.194288,95.2817409 294.668102,93.7924128 C296.141916,92.3030847 297.305436,90.5733182 298.158697,88.6030616 C299.011958,86.6328045 299.438582,84.5307116 299.438582,82.2967197 C299.438582,80.0627278 299.011958,77.9606349 298.158697,75.9903777 C297.305436,74.0201211 296.141916,72.2903546 294.668102,70.8010265 C293.194288,69.3116984 291.464521,68.1326647 289.478751,67.2638903 C287.49298,66.3951153 285.367617,65.9607344 283.102597,65.9607344 Z M441.208869,65.9607344 C439.440292,65.9607344 437.718283,66.2399792 436.042789,66.7984773 C434.367295,67.3569754 432.831448,68.1404124 431.435203,69.1488115 C430.038958,70.1572106 428.828897,71.3672713 427.804984,72.7790303 C426.781071,74.1907894 426.020905,75.7499062 425.524462,77.456428 L456.893277,77.456428 C456.365806,75.7499062 455.582369,74.1907894 454.542943,72.7790303 C453.503516,71.3672713 452.293455,70.1572106 450.912724,69.1488115 C449.531993,68.1404124 448.01166,67.3569754 446.35168,66.7984773 C444.691699,66.2399792 442.977446,65.9607344 441.208869,65.9607344 Z M32.6289054,42.271813 L32.6289054,59.8850684 L14.0135689,59.8850684 L14.0135689,42.271813 L32.6289054,42.271813 Z M54.6288487,42.271813 L54.6288487,59.8850684 L36.013512,59.8850684 L36.013512,42.271813 L54.6288487,42.271813 Z M76.6287917,42.271813 L76.6287917,59.8850684 L58.0134549,59.8850684 L58.0134549,42.271813 L76.6287917,42.271813 Z M98.6287348,42.271813 L98.6287348,59.8850684 L80.013398,59.8850684 L80.013398,42.271813 L98.6287348,42.271813 Z M120.628678,42.271813 L120.628678,59.8850684 L102.013341,59.8850684 L102.013341,42.271813 L120.628678,42.271813 Z M98.6287348,21.1359065 L98.6287348,38.749162 L80.013398,38.749162 L80.013398,21.1359065 L98.6287348,21.1359065 Z M76.6287917,21.1359065 L76.6287917,38.749162 L58.0134549,38.749162 L58.0134549,21.1359065 L76.6287917,21.1359065 Z M54.6288487,21.1359065 L54.6288487,38.749162 L36.013512,38.749162 L36.013512,21.1359065 L54.6288487,21.1359065 Z M98.6287348,0 L98.6287348,17.6132554 L80.013398,17.6132554 L80.013398,0 L98.6287348,0 Z"
                  fill="#2396ED"></path>
        </g>
    </symbol>
        <symbol xmlns="http://www.w3.org/2000/svg" viewBox="0 0 128 128" id="python-original">
            <linearGradient id="python-original-a" gradientUnits="userSpaceOnUse" x1="70.252" y1="1237.476" x2="170.659" y2="1151.089" gradientTransform="matrix(.563 0 0 -.568 -29.215 707.817)">
                <stop offset="0" stop-color="#5A9FD4"></stop>
                <stop offset="1" stop-color="#306998"></stop>
            </linearGradient>
            <linearGradient id="python-original-b" gradientUnits="userSpaceOnUse" x1="209.474" y1="1098.811" x2="173.62" y2="1149.537" gradientTransform="matrix(.563 0 0 -.568 -29.215 707.817)">
                <stop offset="0" stop-color="#FFD43B"></stop>
                <stop offset="1" stop-color="#FFE873"></stop>
            </linearGradient>
            <path fill="url(#python-original-a)" d="M63.391 1.988c-4.222.02-8.252.379-11.8 1.007-10.45 1.846-12.346 5.71-12.346 12.837v9.411h24.693v3.137H29.977c-7.176 0-13.46 4.313-15.426 12.521-2.268 9.405-2.368 15.275 0 25.096 1.755 7.311 5.947 12.519 13.124 12.519h8.491V67.234c0-8.151 7.051-15.34 15.426-15.34h24.665c6.866 0 12.346-5.654 12.346-12.548V15.833c0-6.693-5.646-11.72-12.346-12.837-4.244-.706-8.645-1.027-12.866-1.008zM50.037 9.557c2.55 0 4.634 2.117 4.634 4.721 0 2.593-2.083 4.69-4.634 4.69-2.56 0-4.633-2.097-4.633-4.69-.001-2.604 2.073-4.721 4.633-4.721z" transform="translate(0 10.26)"></path>
            <path fill="url(#python-original-b)" d="M91.682 28.38v10.966c0 8.5-7.208 15.655-15.426 15.655H51.591c-6.756 0-12.346 5.783-12.346 12.549v23.515c0 6.691 5.818 10.628 12.346 12.547 7.816 2.297 15.312 2.713 24.665 0 6.216-1.801 12.346-5.423 12.346-12.547v-9.412H63.938v-3.138h37.012c7.176 0 9.852-5.005 12.348-12.519 2.578-7.735 2.467-15.174 0-25.096-1.774-7.145-5.161-12.521-12.348-12.521h-9.268zM77.809 87.927c2.561 0 4.634 2.097 4.634 4.692 0 2.602-2.074 4.719-4.634 4.719-2.55 0-4.633-2.117-4.633-4.719 0-2.595 2.083-4.692 4.633-4.692z" transform="translate(0 10.26)"></path>
            <radialGradient id="python-original-c" cx="1825.678" cy="444.45" r="26.743" gradientTransform="matrix(0 -.24 -1.055 0 532.979 557.576)" gradientUnits="userSpaceOnUse">
                <stop offset="0" stop-color="#B8B8B8" stop-opacity=".498"></stop>
                <stop offset="1" stop-color="#7F7F7F" stop-opacity="0"></stop>
            </radialGradient>
            <path opacity=".444" fill="url(#python-original-c)" d="M97.309 119.597c0 3.543-14.816 6.416-33.091 6.416-18.276 0-33.092-2.873-33.092-6.416 0-3.544 14.815-6.417 33.092-6.417 18.275 0 33.091 2.872 33.091 6.417z"></path>
        </symbol>
</svg>